<mxfile host="app.diagrams.net" modified="2024-06-23T11:39:14.064Z" agent="Mozilla/5.0 (Windows NT 10.0; Win64; x64) AppleWebKit/537.36 (KHTML, like Gecko) Chrome/126.0.0.0 Safari/537.36" etag="j5DvU29RYYXbYzWRTQDK" version="24.6.2" type="device">
  <diagram name="Page-1" id="wXnNzIj487cMIIJlEjY7">
    <mxGraphModel dx="794" dy="420" grid="1" gridSize="10" guides="1" tooltips="1" connect="1" arrows="1" fold="1" page="1" pageScale="1" pageWidth="827" pageHeight="1169" math="0" shadow="0">
      <root>
        <mxCell id="0" />
        <mxCell id="1" parent="0" />
        <mxCell id="_0JJLBqDcjrwHvcK0835-4" style="edgeStyle=orthogonalEdgeStyle;rounded=0;orthogonalLoop=1;jettySize=auto;html=1;" edge="1" parent="1" source="_0JJLBqDcjrwHvcK0835-2" target="_0JJLBqDcjrwHvcK0835-3">
          <mxGeometry relative="1" as="geometry" />
        </mxCell>
        <mxCell id="_0JJLBqDcjrwHvcK0835-2" value="&lt;b&gt;&lt;font style=&quot;font-size: 17px;&quot;&gt;Idle State&lt;/font&gt;&lt;/b&gt;" style="whiteSpace=wrap;html=1;" vertex="1" parent="1">
          <mxGeometry x="90" y="80" width="120" height="60" as="geometry" />
        </mxCell>
        <mxCell id="_0JJLBqDcjrwHvcK0835-9" style="edgeStyle=orthogonalEdgeStyle;rounded=0;orthogonalLoop=1;jettySize=auto;html=1;exitX=0;exitY=1;exitDx=0;exitDy=0;entryX=1;entryY=0.75;entryDx=0;entryDy=0;" edge="1" parent="1" source="_0JJLBqDcjrwHvcK0835-3" target="_0JJLBqDcjrwHvcK0835-2">
          <mxGeometry relative="1" as="geometry" />
        </mxCell>
        <mxCell id="_0JJLBqDcjrwHvcK0835-3" value="&lt;b&gt;&lt;font style=&quot;font-size: 15px;&quot;&gt;Has Money State&lt;/font&gt;&lt;/b&gt;" style="whiteSpace=wrap;html=1;" vertex="1" parent="1">
          <mxGeometry x="460" y="80" width="120" height="60" as="geometry" />
        </mxCell>
        <mxCell id="_0JJLBqDcjrwHvcK0835-5" value="Press Insert Cash Button" style="text;html=1;align=center;verticalAlign=middle;resizable=0;points=[];autosize=1;strokeColor=none;fillColor=none;" vertex="1" parent="1">
          <mxGeometry x="230" y="88" width="160" height="30" as="geometry" />
        </mxCell>
        <mxCell id="_0JJLBqDcjrwHvcK0835-18" style="edgeStyle=orthogonalEdgeStyle;rounded=0;orthogonalLoop=1;jettySize=auto;html=1;entryX=1;entryY=1;entryDx=0;entryDy=0;" edge="1" parent="1" source="_0JJLBqDcjrwHvcK0835-6" target="_0JJLBqDcjrwHvcK0835-2">
          <mxGeometry relative="1" as="geometry">
            <Array as="points">
              <mxPoint x="530" y="270" />
              <mxPoint x="300" y="270" />
              <mxPoint x="300" y="180" />
              <mxPoint x="210" y="180" />
            </Array>
          </mxGeometry>
        </mxCell>
        <mxCell id="_0JJLBqDcjrwHvcK0835-6" value="&lt;b&gt;&lt;font style=&quot;font-size: 14px;&quot;&gt;Product Selection State&lt;/font&gt;&lt;/b&gt;" style="whiteSpace=wrap;html=1;" vertex="1" parent="1">
          <mxGeometry x="470" y="280" width="120" height="60" as="geometry" />
        </mxCell>
        <mxCell id="_0JJLBqDcjrwHvcK0835-7" style="edgeStyle=orthogonalEdgeStyle;rounded=0;orthogonalLoop=1;jettySize=auto;html=1;exitX=0.5;exitY=1;exitDx=0;exitDy=0;" edge="1" parent="1" source="_0JJLBqDcjrwHvcK0835-3">
          <mxGeometry relative="1" as="geometry">
            <mxPoint x="520" y="280" as="targetPoint" />
          </mxGeometry>
        </mxCell>
        <mxCell id="_0JJLBqDcjrwHvcK0835-8" value="Press Product Selection Button&lt;div&gt;&lt;br&gt;&lt;/div&gt;" style="text;html=1;align=center;verticalAlign=middle;resizable=0;points=[];autosize=1;strokeColor=none;fillColor=none;" vertex="1" parent="1">
          <mxGeometry x="520" y="200" width="190" height="40" as="geometry" />
        </mxCell>
        <mxCell id="_0JJLBqDcjrwHvcK0835-10" value="Cancel/Refund" style="text;html=1;align=center;verticalAlign=middle;resizable=0;points=[];autosize=1;strokeColor=none;fillColor=none;" vertex="1" parent="1">
          <mxGeometry x="260" y="128" width="100" height="30" as="geometry" />
        </mxCell>
        <mxCell id="_0JJLBqDcjrwHvcK0835-11" style="edgeStyle=orthogonalEdgeStyle;rounded=0;orthogonalLoop=1;jettySize=auto;html=1;entryX=1;entryY=0.25;entryDx=0;entryDy=0;" edge="1" parent="1" source="_0JJLBqDcjrwHvcK0835-3" target="_0JJLBqDcjrwHvcK0835-3">
          <mxGeometry relative="1" as="geometry" />
        </mxCell>
        <mxCell id="_0JJLBqDcjrwHvcK0835-12" value="Insert Currency Denomination" style="text;html=1;align=center;verticalAlign=middle;resizable=0;points=[];autosize=1;strokeColor=none;fillColor=none;" vertex="1" parent="1">
          <mxGeometry x="500" y="38" width="180" height="30" as="geometry" />
        </mxCell>
        <mxCell id="_0JJLBqDcjrwHvcK0835-16" style="edgeStyle=orthogonalEdgeStyle;rounded=0;orthogonalLoop=1;jettySize=auto;html=1;entryX=0.5;entryY=1;entryDx=0;entryDy=0;" edge="1" parent="1" source="_0JJLBqDcjrwHvcK0835-13" target="_0JJLBqDcjrwHvcK0835-2">
          <mxGeometry relative="1" as="geometry" />
        </mxCell>
        <mxCell id="_0JJLBqDcjrwHvcK0835-13" value="&lt;b&gt;&lt;font style=&quot;font-size: 15px;&quot;&gt;Dispense Product&lt;/font&gt;&lt;/b&gt;" style="whiteSpace=wrap;html=1;" vertex="1" parent="1">
          <mxGeometry x="100" y="270" width="120" height="60" as="geometry" />
        </mxCell>
        <mxCell id="_0JJLBqDcjrwHvcK0835-14" style="edgeStyle=orthogonalEdgeStyle;rounded=0;orthogonalLoop=1;jettySize=auto;html=1;entryX=1.033;entryY=0.622;entryDx=0;entryDy=0;entryPerimeter=0;" edge="1" parent="1" source="_0JJLBqDcjrwHvcK0835-6" target="_0JJLBqDcjrwHvcK0835-13">
          <mxGeometry relative="1" as="geometry" />
        </mxCell>
        <mxCell id="_0JJLBqDcjrwHvcK0835-15" value="return change" style="text;html=1;align=center;verticalAlign=middle;resizable=0;points=[];autosize=1;strokeColor=none;fillColor=none;" vertex="1" parent="1">
          <mxGeometry x="250" y="288" width="100" height="30" as="geometry" />
        </mxCell>
        <mxCell id="_0JJLBqDcjrwHvcK0835-17" value="dispensed Product" style="text;html=1;align=center;verticalAlign=middle;resizable=0;points=[];autosize=1;strokeColor=none;fillColor=none;" vertex="1" parent="1">
          <mxGeometry x="120" y="188" width="120" height="30" as="geometry" />
        </mxCell>
        <mxCell id="_0JJLBqDcjrwHvcK0835-19" value="cancel/refund" style="text;html=1;align=center;verticalAlign=middle;resizable=0;points=[];autosize=1;strokeColor=none;fillColor=none;" vertex="1" parent="1">
          <mxGeometry x="305" y="240" width="100" height="30" as="geometry" />
        </mxCell>
        <mxCell id="_0JJLBqDcjrwHvcK0835-20" style="edgeStyle=orthogonalEdgeStyle;rounded=0;orthogonalLoop=1;jettySize=auto;html=1;entryX=0.75;entryY=1;entryDx=0;entryDy=0;" edge="1" parent="1" source="_0JJLBqDcjrwHvcK0835-6" target="_0JJLBqDcjrwHvcK0835-6">
          <mxGeometry relative="1" as="geometry" />
        </mxCell>
        <mxCell id="_0JJLBqDcjrwHvcK0835-21" value="Choose Product" style="text;html=1;align=center;verticalAlign=middle;resizable=0;points=[];autosize=1;strokeColor=none;fillColor=none;" vertex="1" parent="1">
          <mxGeometry x="600" y="330" width="110" height="30" as="geometry" />
        </mxCell>
      </root>
    </mxGraphModel>
  </diagram>
</mxfile>
